<svg xmlns="http://www.w3.org/2000/svg" width="160" height="45.74" viewBox="0 0 160 45.74"><g transform="translate(-171.5 -50.76)"><path d="M2.72-30.24h3.6v19.52l8.16-8.2h5l-8.84,8.6L20.24,0H15.12L6.32-9.84V0H2.72ZM30.2-8.16a4.754,4.754,0,0,0,.54,2.26,5.623,5.623,0,0,0,1.42,1.74A6.571,6.571,0,0,0,34.2-3.04a7.311,7.311,0,0,0,2.4.4,5.369,5.369,0,0,0,2.92-.78A9.4,9.4,0,0,0,41.8-5.48L44.52-3.4A10.011,10.011,0,0,1,36.12.48a10.441,10.441,0,0,1-4.06-.76,8.84,8.84,0,0,1-3.08-2.1,9.314,9.314,0,0,1-1.94-3.16,11.169,11.169,0,0,1-.68-3.94,10.361,10.361,0,0,1,.74-3.94,9.769,9.769,0,0,1,2.04-3.16,9.31,9.31,0,0,1,3.1-2.1,9.975,9.975,0,0,1,3.92-.76,9.366,9.366,0,0,1,4.26.88,8.419,8.419,0,0,1,2.86,2.3,9.076,9.076,0,0,1,1.62,3.2,13.324,13.324,0,0,1,.5,3.62v1.28Zm11.36-2.88a7.593,7.593,0,0,0-.38-2.2,4.84,4.84,0,0,0-1.02-1.74,4.7,4.7,0,0,0-1.7-1.16,6.219,6.219,0,0,0-2.38-.42,5.78,5.78,0,0,0-2.42.5,5.9,5.9,0,0,0-1.86,1.3,6,6,0,0,0-1.18,1.78,4.9,4.9,0,0,0-.42,1.94ZM63.8-14.2a5.518,5.518,0,0,0-1.58-1.34,4.551,4.551,0,0,0-2.3-.54,4.381,4.381,0,0,0-2.22.54,1.722,1.722,0,0,0-.94,1.58,1.8,1.8,0,0,0,.54,1.36,4.265,4.265,0,0,0,1.28.84,7.506,7.506,0,0,0,1.58.48q.84.16,1.44.28a16.7,16.7,0,0,1,2.18.68,6.025,6.025,0,0,1,1.76,1.04A4.511,4.511,0,0,1,66.7-7.72a5.374,5.374,0,0,1,.42,2.24,5.254,5.254,0,0,1-.68,2.74A5.733,5.733,0,0,1,64.68-.88,7.407,7.407,0,0,1,62.22.16a12.268,12.268,0,0,1-2.78.32A10.988,10.988,0,0,1,55.3-.24a7.448,7.448,0,0,1-3.18-2.64l2.72-2.24A11.2,11.2,0,0,0,56.8-3.56a4.859,4.859,0,0,0,2.64.68,7.024,7.024,0,0,0,1.38-.14,4.257,4.257,0,0,0,1.24-.44,2.715,2.715,0,0,0,.88-.76,1.736,1.736,0,0,0,.34-1.06,1.827,1.827,0,0,0-.5-1.32,3.623,3.623,0,0,0-1.2-.82A8.735,8.735,0,0,0,60.1-7.9q-.78-.18-1.38-.3-1.16-.28-2.2-.64a6.688,6.688,0,0,1-1.84-.96,4.435,4.435,0,0,1-1.28-1.52,4.89,4.89,0,0,1-.48-2.28,5.168,5.168,0,0,1,.62-2.58A5.51,5.51,0,0,1,55.18-18a7.419,7.419,0,0,1,2.32-1.08,9.775,9.775,0,0,1,2.62-.36,9.627,9.627,0,0,1,3.68.72,5.828,5.828,0,0,1,2.8,2.4Zm21.76,0a5.518,5.518,0,0,0-1.58-1.34,4.551,4.551,0,0,0-2.3-.54,4.381,4.381,0,0,0-2.22.54,1.722,1.722,0,0,0-.94,1.58,1.8,1.8,0,0,0,.54,1.36,4.265,4.265,0,0,0,1.28.84,7.506,7.506,0,0,0,1.58.48q.84.16,1.44.28a16.7,16.7,0,0,1,2.18.68A6.025,6.025,0,0,1,87.3-9.28a4.511,4.511,0,0,1,1.16,1.56,5.374,5.374,0,0,1,.42,2.24,5.254,5.254,0,0,1-.68,2.74A5.733,5.733,0,0,1,86.44-.88,7.407,7.407,0,0,1,83.98.16,12.268,12.268,0,0,1,81.2.48a10.988,10.988,0,0,1-4.14-.72,7.447,7.447,0,0,1-3.18-2.64L76.6-5.12a11.2,11.2,0,0,0,1.96,1.56,4.859,4.859,0,0,0,2.64.68,7.024,7.024,0,0,0,1.38-.14,4.257,4.257,0,0,0,1.24-.44,2.715,2.715,0,0,0,.88-.76,1.736,1.736,0,0,0,.34-1.06,1.827,1.827,0,0,0-.5-1.32,3.623,3.623,0,0,0-1.2-.82,8.735,8.735,0,0,0-1.48-.48q-.78-.18-1.38-.3-1.16-.28-2.2-.64a6.688,6.688,0,0,1-1.84-.96,4.435,4.435,0,0,1-1.28-1.52,4.89,4.89,0,0,1-.48-2.28,5.168,5.168,0,0,1,.62-2.58A5.51,5.51,0,0,1,76.94-18a7.419,7.419,0,0,1,2.32-1.08,9.776,9.776,0,0,1,2.62-.36,9.627,9.627,0,0,1,3.68.72,5.828,5.828,0,0,1,2.8,2.4Zm11.96-4.76h3.6V0h-3.6Zm-.84-6.8a2.539,2.539,0,0,1,.78-1.86,2.539,2.539,0,0,1,1.86-.78,2.539,2.539,0,0,1,1.86.78,2.539,2.539,0,0,1,.78,1.86,2.539,2.539,0,0,1-.78,1.86,2.539,2.539,0,0,1-1.86.78,2.539,2.539,0,0,1-1.86-.78A2.539,2.539,0,0,1,96.68-25.76Zm14.16,6.8h3.6v2.92h.08a5.136,5.136,0,0,1,.96-1.38,6.43,6.43,0,0,1,1.34-1.06,7.08,7.08,0,0,1,1.62-.7,6.184,6.184,0,0,1,1.76-.26,5.039,5.039,0,0,1,1.6.24l-.16,3.88q-.44-.12-.88-.2a4.91,4.91,0,0,0-.88-.08,5.3,5.3,0,0,0-4.04,1.48,6.5,6.5,0,0,0-1.4,4.6V0h-3.6ZM128.8.24a2.539,2.539,0,0,1-1.86-.78,2.539,2.539,0,0,1-.78-1.86,2.539,2.539,0,0,1,.78-1.86,2.539,2.539,0,0,1,1.86-.78,2.539,2.539,0,0,1,1.86.78,2.539,2.539,0,0,1,.78,1.86,2.539,2.539,0,0,1-.78,1.86A2.539,2.539,0,0,1,128.8.24Zm12.36-16.88a10.022,10.022,0,0,1,3.52-2.1,12.041,12.041,0,0,1,4-.7,10.966,10.966,0,0,1,3.58.52,6.961,6.961,0,0,1,2.46,1.4,5.526,5.526,0,0,1,1.42,2.02,6.3,6.3,0,0,1,.46,2.38v9.68q0,1,.04,1.84t.12,1.6h-3.2q-.12-1.44-.12-2.88h-.08a6.9,6.9,0,0,1-2.84,2.6,8.95,8.95,0,0,1-3.8.76A8.723,8.723,0,0,1,144.2.12a6.151,6.151,0,0,1-2.1-1.08,5.156,5.156,0,0,1-1.42-1.78,5.52,5.52,0,0,1-.52-2.46,5.466,5.466,0,0,1,.82-3.08,6.209,6.209,0,0,1,2.24-2.02,10.812,10.812,0,0,1,3.32-1.12,23.048,23.048,0,0,1,4.06-.34h2.64v-.8a3.948,3.948,0,0,0-.28-1.44,3.888,3.888,0,0,0-.84-1.3,4,4,0,0,0-1.4-.92,5.32,5.32,0,0,0-2-.34,7.375,7.375,0,0,0-1.82.2,8.056,8.056,0,0,0-1.42.5,6.233,6.233,0,0,0-1.16.7q-.52.4-1,.76Zm10.16,7.52a25.211,25.211,0,0,0-2.62.14,10.239,10.239,0,0,0-2.44.54,4.705,4.705,0,0,0-1.8,1.12,2.53,2.53,0,0,0-.7,1.84,2.609,2.609,0,0,0,1.1,2.36,5.385,5.385,0,0,0,2.98.72,5.777,5.777,0,0,0,2.52-.5,4.736,4.736,0,0,0,1.68-1.3,5.038,5.038,0,0,0,.92-1.78,7.037,7.037,0,0,0,.28-1.94v-1.2Z" transform="translate(171 81)" fill="#0735d1"/><line x2="158" transform="translate(172.5 95.5)" fill="none" stroke="#0735d1" stroke-linecap="round" stroke-width="2"/></g></svg>